<mxfile host="app.diagrams.net" modified="2023-09-19T13:07:11.474Z" agent="Mozilla/5.0 (Windows NT 10.0; Win64; x64) AppleWebKit/537.36 (KHTML, like Gecko) Chrome/117.0.0.0 Safari/537.36 Edg/117.0.2045.31" version="21.7.5" etag="aAFJ-OoakT-KhkH1XHya" type="github">
  <diagram name="第 1 页" id="Pw0bu2XJX0efayfi-Oyi">
    <mxGraphModel>
      <root>
        <mxCell id="0" />
        <mxCell id="1" parent="0" />
      </root>
    </mxGraphModel>
  </diagram>
</mxfile>
